<svg style="width:16px; height:16px;" viewBox="0 0 16 16">
  <path d="M12.2665492,2.76870476 C11.7365175,2.76870476 11.3068667,3.1983873 11.3068667,3.7283873 C11.3068667,4.25841905 11.7365175,4.68810159 12.2665492,4.68810159 C12.796581,4.68810159 13.2262317,4.25841905 13.2262317,3.7283873 C13.2262317,3.1983873 12.796581,2.76870476 12.2665492,2.76870476 M7.99746984,10.6633079 C6.52518413,10.6633079 5.33166032,9.46978413 5.33166032,7.99746667 C5.33166032,6.52518095 6.52518413,5.33165714 7.99746984,5.33165714 C9.46975556,5.33165714 10.6633111,6.52518095 10.6633111,7.99746667 C10.6633111,9.46978413 9.46975556,10.6633079 7.99746984,10.6633079 M7.99746984,3.89067302 C5.72934286,3.89067302 3.89067619,5.72933968 3.89067619,7.99746667 C3.89067619,10.2655937 5.72934286,12.1042921 7.99746984,12.1042921 C10.2655968,12.1042921 12.1042952,10.2655937 12.1042952,7.99746667 C12.1042952,5.72933968 10.2655968,3.89067302 7.99746984,3.89067302 M7.99746984,6.34920636e-06 C5.82550159,6.34920636e-06 5.55315238,0.00921269841 4.70013651,0.0481333333 C3.84886667,0.0869587302 3.26753333,0.222165079 2.75880317,0.419847619 C2.23293016,0.624228571 1.78689841,0.897688889 1.34229524,1.34229206 C0.897692063,1.78689524 0.624231746,2.23292698 0.419850794,2.75883175 C0.222168254,3.26753016 0.0869619048,3.84886349 0.0481047619,4.70013333 C0.00918412698,5.55314921 9.52380947e-06,5.82549841 9.52380947e-06,7.99746667 C9.52380947e-06,10.1694667 0.00918412698,10.4418159 0.0481047619,11.2948317 C0.0869619048,12.1460698 0.222168254,12.7274032 0.419850794,13.2361333 C0.624231746,13.7620381 0.897692063,14.2080381 1.34229524,14.6526413 C1.78689841,15.0972762 2.23293016,15.3707048 2.75880317,15.5750857 C3.26753333,15.7728 3.84886667,15.9080063 4.70013651,15.9468317 C5.55315238,15.9857524 5.82550159,15.9949587 7.99746984,15.9949587 C10.1694698,15.9949587 10.441819,15.9857524 11.2948349,15.9468317 C12.146073,15.9080063 12.7274063,15.7728 13.2361365,15.5750857 C13.7620413,15.3707048 14.2080413,15.0972762 14.6526444,14.6526413 C15.0972476,14.2080381 15.3707079,13.7620381 15.5750889,13.2361333 C15.7728032,12.7274032 15.9079778,12.1460698 15.9468349,11.2948317 C15.9857556,10.4418159 15.9949619,10.1694667 15.9949619,7.99746667 C15.9949619,5.82549841 15.9857556,5.55314921 15.9468349,4.70013333 C15.9079778,3.84886349 15.7728032,3.26753016 15.5750889,2.75883175 C15.3707079,2.23292698 15.0972476,1.78689524 14.6526444,1.34229206 C14.2080413,0.897688889 13.7620413,0.624228571 13.2361365,0.419847619 C12.7274063,0.222165079 12.146073,0.0869587302 11.2948349,0.0481333333 C10.441819,0.00921269841 10.1694698,6.34920636e-06 7.99746984,6.34920636e-06 M7.99746984,1.44099048 C10.1328984,1.44099048 10.385819,1.44911746 11.2291524,1.48759365 C12.0088667,1.52318095 12.4323587,1.65346667 12.7141683,1.76299048 C13.0874698,1.90806984 13.3538825,2.08137143 13.6337238,2.3612127 C13.9135651,2.64108571 14.0868984,2.90749841 14.2319778,3.2808 C14.3415016,3.56260952 14.4717556,3.98606984 14.5073429,4.76581587 C14.545819,5.60911746 14.5539778,5.8620381 14.5539778,7.99746667 C14.5539778,10.1328952 14.545819,10.3858159 14.5073429,11.2291492 C14.4717556,12.0088635 14.3415016,12.4323556 14.2319778,12.7141651 C14.0868984,13.0874667 13.9135651,13.3538794 13.6337238,13.6337206 C13.3538825,13.9135619 13.0874698,14.0868952 12.7141683,14.2319746 C12.4323587,14.3414984 12.0088667,14.4717524 11.2291524,14.5073397 C10.385946,14.5458159 10.1330254,14.5539746 7.99746984,14.5539746 C5.86191429,14.5539746 5.60899365,14.5458159 4.76581905,14.5073397 C3.98607302,14.4717524 3.5626127,14.3414984 3.28080317,14.2319746 C2.90750159,14.0868952 2.64108889,13.9135619 2.36124762,13.6337206 C2.0813746,13.3538794 1.90807302,13.0874667 1.76299365,12.7141651 C1.65346984,12.4323556 1.52318413,12.0088635 1.48759683,11.2291492 C1.44912063,10.3858159 1.44099365,10.1328952 1.44099365,7.99746667 C1.44099365,5.8620381 1.44912063,5.60911746 1.48759683,4.76581587 C1.52318413,3.98606984 1.65346984,3.56260952 1.76299365,3.2808 C1.90807302,2.90749841 2.0813746,2.64108571 2.36121587,2.36124444 C2.64108889,2.08137143 2.90750159,1.90806984 3.28080317,1.76299048 C3.5626127,1.65346667 3.98607302,1.52318095 4.76581905,1.48759365 C5.60912063,1.44911746 5.86204127,1.44099048 7.99746984,1.44099048" id="path-1"></path>
</svg>
