<svg width="26px" height="37px" viewBox="-362 681 26 37">
  <path d="M-346.589,681.0001 L-361.999,700.6291 L-346.617,700.6291 L-346.589,700.6291 L-336.091,700.6291 L-336.091,687.2251 L-346.589,700.5931 L-346.589,681.0001 Z M-346.894,701.9021 L-346.9,701.9111 L-345.219,704.0181 L-336,704.0181 L-336,701.9021 L-346.894,701.9021 Z M-361.957,701.9021 L-361.957,704.0181 L-348.946,704.0181 L-346.908,701.9021 L-361.957,701.9021 Z M-344.203,705.2911 L-342.514,707.4061 L-336.091,707.4061 L-336.091,705.2911 L-344.203,705.2911 Z M-362,705.2911 L-362,707.4061 L-352.209,707.4061 L-350.172,705.2911 L-362,705.2911 Z M-341.497,708.6791 L-339.809,710.7941 L-336.091,710.7941 L-336.091,708.6791 L-341.497,708.6791 Z M-362,708.6791 L-362,710.7941 L-355.474,710.7941 L-353.436,708.6791 L-362,708.6791 Z M-338.795,712.0651 L-336.091,715.4521 L-336.091,712.0651 L-338.795,712.0651 Z M-362,712.0651 L-362,714.1801 L-358.735,714.1801 L-356.698,712.0651 L-362,712.0651 Z M-362,715.4521 L-362,717.5701 L-359.96,715.4521 L-362,715.4521 Z" id="Page-1" stroke="none" fill="#FEFEFE" fill-rule="evenodd"></path>
</svg>