<svg width="128px" height="67px" viewBox="0 -1 128 67">
  <path d="M83.3652,51.2216 L83.3482,51.3976 L84.4852,51.9416 L82.3732,62.2656 C83.1892,62.1856 84.4052,61.9926 84.9982,61.8656 L85.0132,61.6896 L83.8932,61.1606 L86.0702,50.5336 C85.1892,50.7416 83.8452,51.0926 83.3652,51.2216 L83.3652,51.2216 Z M79.9912,55.9436 C78.1662,56.0716 76.5172,58.4086 76.5172,60.6006 C76.5172,60.9376 76.6142,61.2576 76.8222,61.2576 C77.2382,61.2576 78.5512,60.0406 79.3992,58.7766 L79.9912,55.9436 Z M81.6242,54.4536 L80.2472,61.1606 L81.3362,61.6576 L81.3192,61.8496 C80.7272,61.9776 79.4952,62.1856 78.6782,62.2656 L79.1752,59.8486 C78.3582,61.0006 77.2382,62.2976 76.2612,62.2976 C75.7492,62.2976 75.1412,61.7376 75.1412,60.6006 C75.1412,58.4726 76.9662,55.6386 80.1032,55.3026 L81.6242,54.4536 Z M74.1512,55.9106 C74.1512,55.4146 73.8952,55.0316 73.3352,55.0316 C72.4862,55.0316 71.1902,56.1036 69.9102,57.5596 L70.4542,54.9666 C69.6052,55.1746 68.2772,55.5106 67.8442,55.6876 L67.8292,55.8636 L68.8532,56.3596 L67.6522,62.1376 L68.9492,62.1376 L69.7012,58.5036 C70.9982,57.1276 72.2302,56.2316 72.6152,56.2316 C72.6952,56.2316 72.7432,56.2946 72.7432,56.4076 C72.7432,56.5516 72.1982,58.9196 71.4782,62.2656 C72.2782,62.1856 73.4792,61.9926 74.0882,61.8656 L74.1032,61.6736 L73.0142,61.1606 C73.7032,58.2156 73.9432,56.9676 74.0712,56.5196 C74.1192,56.3436 74.1512,56.0866 74.1512,55.9106 L74.1512,55.9106 Z M64.2612,57.7676 L64.8532,54.9826 C64.0062,55.1906 62.7092,55.5586 62.2282,55.6876 L62.2282,55.8786 L63.2692,56.3746 L62.0682,62.1376 L63.3492,62.1376 L64.0532,58.7766 C65.1262,57.1756 65.7022,56.5826 66.0072,56.5826 C66.2462,56.5826 66.6142,56.7426 66.7912,56.8556 L67.3832,55.3196 C67.2072,55.2066 66.7112,55.0316 66.4062,55.0316 C66.0222,55.0316 65.2862,56.0386 64.2612,57.7676 L64.2612,57.7676 Z M59.7032,55.1906 L59.0632,58.2006 C58.0872,59.5606 56.5342,61.0486 56.1182,61.0486 C56.0382,61.0486 55.9902,60.9856 55.9902,60.8726 C55.9902,60.7446 56.5822,58.2806 57.3502,54.9666 C56.5022,55.1746 55.1742,55.5586 54.7092,55.6876 L54.6932,55.8636 L55.7182,56.3436 C55.2542,58.4726 54.8692,60.0406 54.6932,60.7606 C54.6292,60.9526 54.5972,61.1936 54.5972,61.3686 C54.5972,61.8656 54.8862,62.2496 55.3492,62.2496 C56.3422,62.2496 57.6862,60.9056 58.8232,59.3046 L58.1992,62.2656 C58.9342,62.1856 60.2792,61.9456 60.7922,61.8656 L60.7922,61.6736 L59.7352,61.1936 L60.9832,55.1906 L59.7032,55.1906 Z M52.1022,57.5286 C52.1022,56.3746 51.6862,55.6876 51.0622,55.6876 C50.0222,55.6876 48.8382,57.5436 48.8382,59.7526 C48.8382,60.9686 49.2372,61.6256 49.9262,61.6256 C50.9342,61.6256 52.1022,59.8006 52.1022,57.5286 L52.1022,57.5286 Z M53.5272,57.6876 C53.5272,60.4246 51.5432,62.2976 49.8622,62.2976 C48.4692,62.2976 47.4282,61.1776 47.4282,59.5766 C47.4282,57.0156 49.3492,55.0146 51.0942,55.0146 C52.4392,55.0146 53.5272,56.1516 53.5272,57.6876 L53.5272,57.6876 Z M47.6872,51.5406 L43.9582,51.5406 L43.9262,51.7176 L44.9342,52.4536 L43.6542,59.6886 C43.1892,62.3456 42.4052,64.0106 41.4282,65.4666 L41.6532,65.6436 C43.6542,64.0586 44.7102,61.9776 44.9672,60.6176 L46.3902,52.4536 L47.6552,51.7176 L47.6872,51.5406 Z M36.4292,8.8456 L40.3612,8.8456 L38.4412,4.4436 L36.4292,8.8456 Z M35.6152,10.6816 L34.1732,13.8256 L32.0692,13.8256 L38.4742,0.0666 L44.6542,13.8256 L42.5162,13.8256 L41.1572,10.6816 L35.6152,10.6816 Z M106.0612,12.0396 C106.5922,11.4356 106.9702,10.7876 107.1932,10.0946 C107.4222,9.3456 107.5372,8.4846 107.5372,7.5126 L107.5372,7.0846 L102.1882,7.0846 L102.1882,8.9206 L105.4162,8.9206 C105.3262,9.8316 104.8992,10.6146 104.1332,11.2686 C103.3672,11.9166 102.5042,12.2406 101.5422,12.2406 C100.4132,12.2406 99.3652,11.8076 98.3982,10.9416 C97.3642,10.0076 96.8472,8.8196 96.8472,7.3776 C96.8472,5.9806 97.3112,4.8176 98.2392,3.8906 C99.1672,2.9456 100.3152,2.4736 101.6852,2.4736 C103.2112,2.4736 104.5052,3.1806 105.5672,4.5946 L106.9582,3.2616 C106.1482,2.3336 105.3242,1.6626 104.4852,1.2486 C103.6072,0.8356 102.6632,0.6286 101.6512,0.6286 C99.7672,0.6286 98.1692,1.2856 96.8552,2.5986 C95.5422,3.9066 94.8852,5.4996 94.8852,7.3776 C94.8852,9.2166 95.5312,10.7936 96.8222,12.1066 C98.1132,13.4146 99.6642,14.0686 101.4752,14.0686 C103.3312,14.0686 104.8592,13.3926 106.0612,12.0396 L106.0612,12.0396 Z M24.1712,12.2326 C23.4002,12.2326 22.8132,11.9526 22.4102,11.3936 C22.1872,11.1036 22.0302,10.5776 21.9412,9.8176 L19.9622,10.2536 C20.1412,11.4616 20.5912,12.3976 21.3122,13.0626 C22.0442,13.7276 22.9722,14.0606 24.0962,14.0606 C25.2812,14.0606 26.2732,13.6686 27.0722,12.8866 C27.8662,12.1096 28.2632,11.1256 28.2632,9.9356 C28.2632,9.0466 28.0192,8.2956 27.5332,7.6836 C27.0472,7.0716 26.2782,6.5536 25.2282,6.1286 L23.9362,5.6006 C22.9972,5.2146 22.5282,4.7066 22.5282,4.0746 C22.5282,3.6166 22.7072,3.2366 23.0642,2.9346 C23.4222,2.6266 23.8722,2.4736 24.4142,2.4736 C24.8562,2.4736 25.2162,2.5626 25.4962,2.7416 C25.7642,2.8976 26.0462,3.2336 26.3432,3.7476 L27.9272,2.8086 C27.0892,1.3556 25.9232,0.6286 24.4312,0.6286 C23.3242,0.6286 22.3992,0.9586 21.6562,1.6176 C20.9122,2.2716 20.5412,3.0856 20.5412,4.0576 C20.5412,5.4996 21.4272,6.5956 23.1992,7.3446 L24.4482,7.8646 C24.7722,8.0036 25.0512,8.1506 25.2862,8.3046 C25.5212,8.4586 25.7122,8.6226 25.8612,8.7996 C26.0092,8.9756 26.1182,9.1676 26.1882,9.3776 C26.2572,9.5876 26.2922,9.8176 26.2922,10.0696 C26.2922,10.6956 26.0912,11.2126 25.6892,11.6206 C25.2862,12.0286 24.7802,12.2326 24.1712,12.2326 L24.1712,12.2326 Z M69.1022,13.8256 L71.0562,13.8256 L71.0562,0.8806 L69.1022,0.8806 L69.1022,13.8256 Z M63.8142,11.9896 L60.0082,11.9896 L60.0082,0.8806 L58.0542,0.8806 L58.0542,13.8256 L63.8142,13.8256 L63.8142,11.9896 Z M49.5562,13.8256 L51.5102,13.8256 L51.5102,0.8806 L49.5562,0.8806 L49.5562,13.8256 Z M79.5532,4.7616 L88.9942,14.6136 L88.9942,0.8806 L87.0412,0.8806 L87.0412,9.8766 L77.6002,-0.0004 L77.6002,13.8256 L79.5532,13.8256 L79.5532,4.7616 Z M75.6722,39.8176 C76.9022,39.8176 78.0752,39.5016 79.1932,38.8696 L79.1932,36.5136 C78.8752,36.7826 78.5712,37.0116 78.2842,37.2016 C77.9962,37.3916 77.7182,37.5426 77.4492,37.6546 C76.9692,37.8776 76.3852,37.9896 75.6972,37.9896 C74.3672,37.9896 73.2432,37.5226 72.3272,36.5896 C71.4102,35.6556 70.9522,34.5096 70.9522,33.1516 C70.9522,31.7766 71.4102,30.6146 72.3272,29.6636 C73.2382,28.7076 74.3582,28.2306 75.6892,28.2306 C76.8962,28.2306 78.0642,28.7026 79.1932,29.6476 L79.1932,27.3326 C78.1092,26.7016 76.9852,26.3856 75.8232,26.3856 C73.6932,26.3856 71.9582,27.1766 70.6162,28.7586 C69.5262,30.0496 68.9812,31.5196 68.9812,33.1686 C68.9812,35.0076 69.6322,36.5786 70.9352,37.8806 C72.2432,39.1716 73.8222,39.8176 75.6722,39.8176 L75.6722,39.8176 Z M63.6272,37.7466 L58.4372,37.7466 L58.4372,33.4196 L63.4762,33.4196 L63.4762,31.5836 L58.4372,31.5836 L58.4372,28.4736 L63.6272,28.4736 L63.6272,26.6376 L56.4842,26.6376 L56.4842,39.5826 L63.6272,39.5826 L63.6272,37.7466 Z M83.7342,28.4736 L86.7112,28.4736 L86.7112,39.5826 L88.6642,39.5826 L88.6642,28.4736 L91.6322,28.4736 L91.6322,26.6376 L83.7342,26.6376 L83.7342,28.4736 Z M1.6352,28.7586 C0.5452,30.0496 0.0002,31.5196 0.0002,33.1686 C0.0002,35.0076 0.6512,36.5786 1.9542,37.8806 C3.2622,39.1716 4.8412,39.8176 6.6912,39.8176 C7.9212,39.8176 9.0952,39.5016 10.2122,38.8696 L10.2122,36.5136 C9.8942,36.7826 9.5912,37.0116 9.3032,37.2016 C9.0152,37.3916 8.7372,37.5426 8.4692,37.6546 C7.9882,37.8776 7.4042,37.9896 6.7162,37.9896 C5.3862,37.9896 4.2622,37.5226 3.3462,36.5896 C2.4292,35.6556 1.9712,34.5096 1.9712,33.1516 C1.9712,31.7766 2.4292,30.6146 3.3462,29.6636 C4.2572,28.7076 5.3772,28.2306 6.7082,28.2306 C7.9152,28.2306 9.0832,28.7026 10.2122,29.6476 L10.2122,27.3326 C9.1282,26.7016 8.0052,26.3856 6.8422,26.3856 C4.7122,26.3856 2.9772,27.1766 1.6352,28.7586 L1.6352,28.7586 Z M26.7782,33.1096 C26.7782,31.7296 26.3172,30.5726 25.3952,29.6386 C24.4782,28.6996 23.3432,28.2306 21.9912,28.2306 C20.6442,28.2306 19.5062,28.6996 18.5782,29.6386 C17.6502,30.5666 17.1862,31.7126 17.1862,33.0766 C17.1862,34.5076 17.6672,35.6836 18.6292,36.6056 C19.5842,37.5286 20.6882,37.9896 21.9402,37.9896 C23.2992,37.9896 24.4442,37.5196 25.3782,36.5806 C26.3112,35.6306 26.7782,34.4736 26.7782,33.1096 L26.7782,33.1096 Z M26.7612,28.3726 C28.0862,29.6916 28.7482,31.2766 28.7482,33.1266 C28.7482,34.9876 28.0832,36.5666 26.7532,37.8636 C25.4172,39.1666 23.8042,39.8176 21.9152,39.8176 C20.2442,39.8176 18.7432,39.2386 17.4132,38.0816 C15.9482,36.8016 15.2162,35.1246 15.2162,33.0516 C15.2162,31.2286 15.8842,29.6636 17.2202,28.3556 C18.5502,27.0476 20.1492,26.3936 22.0162,26.3936 C23.8602,26.3936 25.4422,27.0536 26.7612,28.3726 L26.7612,28.3726 Z M127.4992,28.4736 L127.4992,26.6376 L120.3552,26.6376 L120.3552,39.5826 L127.4992,39.5826 L127.4992,37.7466 L122.3092,37.7466 L122.3092,33.4196 L127.3482,33.4196 L127.3482,31.5836 L122.3092,31.5836 L122.3092,28.4736 L127.4992,28.4736 Z M51.1962,37.7466 L47.3902,37.7466 L47.3902,26.6376 L45.4362,26.6376 L45.4362,39.5826 L51.1962,39.5826 L51.1962,37.7466 Z M109.5432,35.6086 L105.9632,26.6376 L103.8252,26.6376 L109.5012,40.5546 L115.3112,26.6376 L113.1732,26.6376 L109.5432,35.6086 Z M96.8102,39.5826 L98.7642,39.5826 L98.7642,26.6376 L96.8102,26.6376 L96.8102,39.5826 Z M36.3432,37.7466 L40.1492,37.7466 L40.1492,39.5826 L34.3892,39.5826 L34.3892,26.6376 L36.3432,26.6376 L36.3432,37.7466 Z" id="Fill-1" stroke="none" fill="#FEFEFE" fill-rule="evenodd"></path>
</svg>