<svg width="121px" height="20px" viewBox="399 392 121 20">
  <path d="M399,392.378 L403.939,392.378 L403.939,399.693 L407.557,399.693 L407.557,392.378 L412.497,392.378 L412.497,411.623 L407.557,411.623 L407.557,403.58 L403.939,403.58 L403.939,411.623 L399,411.623 L399,392.378 Z M416.571,411.623 L421.564,411.623 L421.564,392.378 L416.571,392.378 L416.571,411.623 Z M431.17,412 C426.824,412 424.233,408.762 424.233,402.689 C424.233,395.618 426.797,392 431.737,392 C435.866,392 438.485,394.672 438.485,398.99 L438.485,399.261 L433.814,399.261 C433.814,396.859 433.166,395.698 431.709,395.698 C429.847,395.698 429.469,397.939 429.469,402.689 C429.469,406.575 429.874,408.437 431.79,408.437 C433.166,408.437 434.03,407.358 434.03,405.388 L434.03,405.308 L431.682,405.308 L431.682,402.04 L438.377,402.04 L438.377,411.704 L436.298,411.704 L435.381,410.165 C434.273,411.407 432.897,412 431.17,412 L431.17,412 Z M442.149,392.378 L447.088,392.378 L447.088,399.693 L450.705,399.693 L450.705,392.378 L455.645,392.378 L455.645,411.623 L450.705,411.623 L450.705,403.58 L447.088,403.58 L447.088,411.623 L442.149,411.623 L442.149,392.378 Z M470.115,396.049 L465.985,396.049 L465.985,392.378 L479.184,392.378 L479.184,396.049 L475.053,396.049 L475.053,411.623 L470.115,411.623 L470.115,396.049 Z M482.149,411.623 L487.143,411.623 L487.143,392.378 L482.149,392.378 L482.149,411.623 Z M496.747,392.378 C502.093,392.378 504.954,395.725 504.954,402.014 C504.954,408.304 502.093,411.623 496.747,411.623 L490.972,411.623 L490.972,392.378 L496.747,392.378 Z M495.911,408.114 L496.424,408.114 C498.988,408.114 499.717,406.279 499.717,402.014 C499.717,397.75 498.988,395.887 496.424,395.887 L495.911,395.887 L495.911,408.114 Z M507.413,392.378 L519.478,392.378 L519.478,396.049 L512.352,396.049 L512.352,399.8 L517.103,399.8 L517.103,403.471 L512.352,403.471 L512.352,407.953 L519.478,407.953 L519.478,411.623 L507.413,411.623 L507.413,392.378 Z" id="Page-1" stroke="none" fill="#000000" fill-rule="evenodd"></path>
</svg>