<?xml version="1.0" encoding="utf-8"?>
<!-- Generator: Adobe Illustrator 17.0.0, SVG Export Plug-In . SVG Version: 6.00 Build 0)  -->
<!DOCTYPE svg PUBLIC "-//W3C//DTD SVG 1.1//EN" "http://www.w3.org/Graphics/SVG/1.1/DTD/svg11.dtd">
<svg version="1.1" id="Layer_1" xmlns="http://www.w3.org/2000/svg" xmlns:xlink="http://www.w3.org/1999/xlink" x="0px" y="0px"
	 width="340.54px" height="89.697px" viewBox="0 0 340.54 89.697" enable-background="new 0 0 340.54 89.697" xml:space="preserve">
<g>
	<path fill-rule="evenodd" clip-rule="evenodd" fill="#111C45" d="M52.998,86.665c-1.052,0.81-2.305,1.517-3.76,2.123
		c-1.455,0.606-3.234,0.91-5.336,0.91c-3.881,0-6.692-0.83-8.428-2.487c-1.74-1.655-2.932-3.98-3.578-6.973h-0.243
		c-0.324,0.728-0.769,1.638-1.333,2.729c-0.567,1.091-1.436,2.143-2.608,3.153c-1.173,1.013-2.728,1.862-4.668,2.548
		c-1.94,0.686-4.407,1.031-7.399,1.031c-3.395,0-6.105-0.384-8.125-1.153c-2.022-0.766-3.599-1.716-4.73-2.849
		c-1.134-1.132-1.88-2.405-2.244-3.82C0.183,80.461,0,79.146,0,77.933c0-2.829,0.566-5.093,1.698-6.791
		c1.132-1.696,2.607-3.051,4.426-4.062c1.819-1.009,3.839-1.838,6.063-2.486c2.223-0.645,4.467-1.334,6.731-2.061
		c2.669-0.888,4.87-1.656,6.61-2.305c1.738-0.646,3.092-1.434,4.062-2.365c0.971-0.929,1.638-2.102,2.002-3.517
		c0.363-1.414,0.546-3.335,0.546-5.761c0-1.94-0.122-3.678-0.364-5.215c-0.243-1.535-0.688-2.849-1.334-3.941
		c-0.648-1.091-1.576-1.919-2.79-2.486c-1.212-0.565-2.831-0.849-4.851-0.849c-2.667,0-4.871,0.466-6.609,1.395
		c-1.74,0.931-2.608,2.447-2.608,4.547c0,1.376,0.122,2.729,0.364,4.063c0.242,1.334,0.364,2.325,0.364,2.971
		c0,1.134-0.406,2.083-1.213,2.85c-0.809,0.77-1.982,1.152-3.517,1.152c-2.667,0-4.326-0.485-4.972-1.455
		c-0.649-0.97-0.97-2.223-0.97-3.76c0-1.777,0.403-3.475,1.212-5.093c0.808-1.617,2.001-3.051,3.578-4.305
		c1.576-1.252,3.556-2.243,5.942-2.971c2.384-0.727,5.112-1.091,8.186-1.091c3.717,0,6.831,0.466,9.338,1.395
		c2.505,0.93,4.527,2.182,6.063,3.76c1.536,1.576,2.627,3.355,3.275,5.335c0.646,1.983,0.97,4.063,0.97,6.246v30.197
		c0,2.347,0.364,3.924,1.091,4.73c0.728,0.809,1.778,1.213,3.154,1.213c0.89,0,1.819-0.161,2.79-0.485
		c0.97-0.323,1.899-0.808,2.79-1.455L52.998,86.665z M31.775,58.287h-0.243c-0.162,1.052-1.497,2.103-4.002,3.154l-9.095,3.638
		c-2.589,1.052-4.57,2.528-5.943,4.426c-1.376,1.9-2.061,4.265-2.061,7.095c0,1.212,0.121,2.467,0.364,3.759
		c0.242,1.295,0.686,2.447,1.334,3.457c0.645,1.012,1.555,1.84,2.728,2.486c1.171,0.649,2.686,0.97,4.547,0.97
		c2.669,0,4.831-0.566,6.489-1.698c1.656-1.132,2.911-2.546,3.759-4.245c0.849-1.697,1.414-3.534,1.698-5.518
		c0.282-1.981,0.425-3.779,0.425-5.397V58.287z M60.153,88h1.333c0.243-0.403,0.566-0.79,0.971-1.153
		c0.403-0.364,1.05-0.546,1.94-0.546c0.888,0,1.859,0.181,2.911,0.546c1.05,0.363,2.201,0.75,3.456,1.153
		c1.252,0.402,2.626,0.789,4.123,1.152c1.496,0.364,3.132,0.546,4.912,0.546c3.072,0,5.801-0.485,8.186-1.455
		c2.384-0.97,4.406-2.244,6.064-3.82c1.656-1.576,2.911-3.415,3.76-5.518c0.848-2.102,1.273-4.245,1.273-6.427
		c0-3.718-1.212-6.711-3.638-8.975c-2.426-2.262-5.539-4.042-9.339-5.336l-8.853-2.911c-3.558-1.132-6.246-2.365-8.064-3.699
		c-1.819-1.334-2.729-3.293-2.729-5.882c0-2.911,1.071-5.234,3.213-6.973c2.142-1.738,5.155-2.608,9.036-2.608
		c2.02,0,3.779,0.364,5.276,1.092c1.496,0.727,2.748,1.74,3.76,3.032c1.009,1.294,1.88,2.771,2.607,4.426
		c0.728,1.658,1.375,3.377,1.94,5.155h1.334V35.972h-1.334c-0.406,0.649-1.051,0.97-1.94,0.97c-0.89,0-1.658-0.14-2.303-0.425
		c-0.649-0.282-1.377-0.565-2.184-0.849c-0.809-0.281-1.759-0.565-2.85-0.848c-1.091-0.282-2.528-0.425-4.305-0.425
		c-2.507,0-4.832,0.406-6.973,1.213c-2.143,0.809-3.983,1.939-5.519,3.395c-1.536,1.455-2.748,3.154-3.638,5.094
		c-0.891,1.94-1.334,4.044-1.334,6.306c0,2.667,0.383,4.851,1.153,6.549c0.767,1.697,1.758,3.092,2.97,4.183
		c1.213,1.091,2.526,1.94,3.942,2.548c1.414,0.606,2.729,1.111,3.941,1.515l9.46,3.276c2.101,0.727,3.94,1.719,5.518,2.97
		c1.576,1.255,2.365,3.416,2.365,6.488c0,3.559-1.012,6.125-3.033,7.701C85.539,87.21,83.235,88,80.648,88
		c-3.073,0-5.699-0.525-7.883-1.577c-2.182-1.048-4.023-2.404-5.518-4.062c-1.498-1.657-2.69-3.475-3.578-5.458
		c-0.891-1.98-1.618-3.94-2.184-5.882h-1.333V88z M154.262,74.295c-0.324,0.97-0.809,2.224-1.455,3.76
		c-0.648,1.536-1.637,3.053-2.971,4.547c-1.334,1.497-3.153,2.771-5.457,3.82c-2.305,1.052-5.235,1.576-8.792,1.576
		c-3.316,0-6.004-0.667-8.065-2.001c-2.061-1.333-3.68-3.154-4.851-5.457c-1.173-2.305-1.982-4.992-2.426-8.065
		c-0.445-3.072-0.667-6.345-0.667-9.823c0-6.144,0.504-10.995,1.516-14.553c1.011-3.557,2.305-6.226,3.881-8.005
		c1.576-1.777,3.314-2.889,5.214-3.335c1.9-0.444,3.74-0.667,5.519-0.667c2.426,0,4.566,0.506,6.427,1.516
		c1.86,1.012,2.79,2.447,2.79,4.305c0,1.052-0.283,2.385-0.848,4.002c-0.568,1.619-0.849,2.992-0.849,4.124
		c0,1.455,0.625,2.486,1.88,3.092c1.251,0.606,2.565,0.91,3.94,0.91c2.021,0,3.578-0.546,4.67-1.637
		c1.091-1.092,1.638-2.486,1.638-4.184c0-2.505-0.629-4.627-1.88-6.367c-1.255-1.738-2.831-3.153-4.73-4.245
		c-1.9-1.091-4.003-1.899-6.306-2.425c-2.305-0.525-4.547-0.788-6.731-0.788c-3.881,0-7.54,0.708-10.976,2.122
		c-3.437,1.415-6.427,3.377-8.974,5.882c-2.547,2.507-4.569,5.457-6.064,8.853c-1.496,3.396-2.243,7.076-2.243,11.036
		c0,5.094,0.868,9.381,2.607,12.855c1.738,3.478,3.982,6.287,6.731,8.429c2.748,2.143,5.78,3.699,9.096,4.668
		c3.314,0.971,6.507,1.456,9.581,1.456c4.041,0,7.337-0.629,9.884-1.88c2.546-1.252,4.566-2.708,6.064-4.366
		c1.494-1.657,2.586-3.315,3.274-4.972c0.686-1.657,1.152-2.931,1.395-3.82L154.262,74.295z M207.016,87.999h29.106V86.3h-9.339
		V58.893c0-3.233,0.505-6.225,1.516-8.975c1.011-2.748,2.405-5.133,4.184-7.156c1.778-2.02,3.839-3.596,6.185-4.729
		c2.344-1.132,4.81-1.698,7.398-1.698c3.154,0,5.476,1.012,6.974,3.032c1.494,2.022,2.243,4.609,2.243,7.763V86.3h-9.338v1.698
		h29.106V86.3h-9.339V50.888c0-5.658-1.678-9.782-5.033-12.37c-3.355-2.587-7.701-3.882-13.037-3.882
		c-3.478,0-6.427,0.547-8.853,1.638c-2.426,1.091-4.448,2.407-6.063,3.941c-1.618,1.537-2.893,3.113-3.82,4.73
		c-0.931,1.618-1.638,2.952-2.123,4.002h-0.242V35.971h-19.525v1.698h9.338V86.3h-9.338V87.999z M311.434,0.559h19.768V86.3h9.338
		v1.698h-19.526v-10.55h-0.243c-0.324,0.97-0.809,2.142-1.454,3.516c-0.649,1.377-1.599,2.711-2.85,4.002
		c-1.255,1.295-2.831,2.408-4.73,3.336c-1.9,0.928-4.226,1.395-6.973,1.395c-3.558,0-6.934-0.77-10.128-2.306
		c-3.194-1.535-6.003-3.596-8.428-6.184c-2.426-2.587-4.347-5.558-5.76-8.913c-1.416-3.354-2.123-6.892-2.123-10.612
		c0-3.639,0.687-7.114,2.063-10.43c1.374-3.314,3.232-6.203,5.578-8.67c2.344-2.466,5.053-4.447,8.125-5.943
		c3.072-1.494,6.347-2.243,9.824-2.243c4.445,0,8.044,1.091,10.793,3.275c2.748,2.182,4.687,4.85,5.821,8.004h0.242V2.257h-9.337
		V0.559z M290.452,60.227c0,4.205,0.122,8.025,0.364,11.46c0.243,3.438,0.849,6.368,1.819,8.794
		c0.969,2.424,2.426,4.285,4.366,5.578c1.939,1.294,4.566,1.94,7.883,1.94c3.394,0,6.124-0.727,8.185-2.184
		c2.063-1.454,3.658-3.334,4.791-5.639c1.132-2.305,1.899-4.87,2.305-7.701c0.404-2.83,0.606-5.578,0.606-8.247
		c0-3.154-0.06-5.882-0.181-8.186c-0.121-2.305-0.345-4.345-0.667-6.124c-0.325-1.778-0.77-3.315-1.334-4.609
		c-0.567-1.293-1.255-2.505-2.063-3.639c-1.212-1.615-2.788-2.95-4.729-4.001c-1.94-1.051-4.407-1.577-7.398-1.577
		c-2.831,0-5.155,0.567-6.974,1.697c-1.818,1.134-3.234,2.75-4.244,4.851c-1.013,2.104-1.719,4.63-2.122,7.58
		C290.653,53.173,290.452,56.509,290.452,60.227z"/>
	<path fill-rule="evenodd" clip-rule="evenodd" fill="#2BACE2" d="M201.921,41.355c-0.406,0.567-1.152,1.618-2.243,3.153
		c-1.091,1.537-2.567,3.093-4.426,4.67c-1.861,1.576-4.124,2.971-6.793,4.184c-2.666,1.212-5.78,1.818-9.338,1.818
		c-3.072,0-5.821-0.466-8.247-1.394c-2.426-0.929-4.508-2.224-6.246-3.881c-1.739-1.657-3.073-3.639-4.001-5.943
		c-0.93-2.305-1.396-4.83-1.396-7.579c0-3.639,0.952-7.58,2.85-11.825c1.899-4.244,4.428-8.185,7.58-11.824
		c3.154-3.639,6.812-6.67,10.976-9.096C184.802,1.212,189.147,0,193.676,0c2.182,0,4.202,0.203,6.063,0.606
		c1.86,0.406,3.495,1.031,4.91,1.88c1.416,0.848,2.528,1.9,3.336,3.153c0.809,1.255,1.213,2.689,1.213,4.305
		c0,2.182-0.567,4.084-1.697,5.7c-1.133,1.618-2.59,2.992-4.367,4.123c-1.779,1.134-3.78,2.044-6.002,2.729
		c-2.226,0.688-4.409,1.234-6.549,1.638c-2.146,0.404-4.144,0.688-6.004,0.848c-1.861,0.164-3.315,0.243-4.367,0.243h-2.426
		c-0.809,0-1.696-0.079-2.666-0.243c-0.892,2.588-1.679,5.397-2.365,8.429c-0.688,3.032-1.031,6.003-1.031,8.913
		c0,3.963,0.847,6.731,2.545,8.307c1.698,1.576,3.961,2.365,6.793,2.365c2.669,0,5.073-0.504,7.216-1.516
		c2.14-1.011,4.021-2.203,5.639-3.577c1.617-1.375,2.971-2.769,4.062-4.184c1.091-1.414,1.92-2.526,2.486-3.335L201.921,41.355z
		 M197.8,7.033c0-1.777-0.426-3.111-1.274-4.002c-0.85-0.888-1.963-1.334-3.336-1.334c-2.103,0-4.062,0.728-5.882,2.184
		c-1.818,1.455-3.476,3.275-4.971,5.457c-1.499,2.182-2.81,4.528-3.943,7.035s-2.022,4.811-2.669,6.912
		c0.486,0.082,1.051,0.141,1.697,0.181c0.646,0.041,1.293,0.06,1.942,0.06c2.747,0,5.254-0.425,7.52-1.273
		c2.263-0.849,4.202-2.021,5.821-3.518c1.614-1.494,2.868-3.232,3.76-5.214C197.353,11.542,197.8,9.379,197.8,7.033z"/>
</g>
</svg>
